<svg width="88" height="88" viewBox="0 0 88 88" fill="none" xmlns="http://www.w3.org/2000/svg">
<path d="M35.3491 13.1865C39.7944 11.9416 44.5105 11.6708 49.0651 12.4002C53.9908 13.1734 58.72 15.139 62.7549 18.0699C66.6762 20.9091 69.9426 24.6481 72.2264 28.9156C74.5801 33.3011 75.8682 38.2457 75.9905 43.2164C76.0997 47.698 75.2656 52.2058 73.532 56.3422C71.7155 60.7015 68.9076 64.6414 65.3924 67.7995C62.2047 70.6736 58.4318 72.8969 54.3707 74.2816C49.3751 75.9982 43.9516 76.4306 38.7464 75.5702C34.2661 74.832 29.9518 73.1197 26.1832 70.5863C21.6418 67.5461 17.9039 63.3223 15.441 58.4389C13.2227 54.0927 12.0568 49.2268 12 44.3477V43.6314C12.0349 41.906 12.1747 40.1807 12.476 38.4815C13.5022 32.5192 16.2838 26.8758 20.3711 22.4161C24.3798 18.0306 29.6199 14.7808 35.3491 13.1865ZM42.9603 21.407C42.4145 21.6211 42.2355 22.3986 42.6721 22.8048C43.0957 23.294 43.9778 23.0625 44.1263 22.4423C44.3533 21.7827 43.5804 21.0969 42.9603 21.407ZM42.7245 24.3423C42.7289 25.5697 42.7071 26.8015 42.7333 28.0333C44.4581 28.0158 46.183 28.0333 47.9079 28.0246C47.5935 27.3737 47.1131 26.7797 46.8948 26.0983C47.1874 25.4911 47.5847 24.9408 47.9079 24.3467C46.183 24.338 44.4538 24.3423 42.7245 24.3423ZM28.5762 27.2165C28.0085 27.3431 27.716 28.0813 28.074 28.5531C28.4147 29.086 29.3142 29.0117 29.5631 28.4308C29.9037 27.8149 29.2443 27.0243 28.5762 27.2165ZM55.9515 27.3169C55.4056 27.6183 55.4012 28.4876 55.9515 28.7846C56.4755 29.1297 57.2658 28.7278 57.2702 28.0901C57.327 27.4305 56.5017 26.9369 55.9515 27.3169ZM37.2486 29.5097C38.611 33.9519 38.5848 38.7829 37.2573 43.2295C41.2791 43.2208 45.2966 43.2601 49.314 43.2077C50.6677 38.7742 50.6677 33.9432 49.3096 29.514C45.2922 29.5009 41.2704 29.5053 37.2486 29.5097ZM28.0566 30.1474C28.0522 31.3748 28.0522 32.6066 28.0566 33.834C29.7815 33.8296 31.5063 33.8384 33.2268 33.8296C32.9386 33.3142 32.6504 32.7944 32.3578 32.2833C32.2923 32.1348 32.1439 31.9776 32.253 31.816C32.55 31.2481 32.9037 30.7109 33.2268 30.1518C31.5063 30.143 29.7815 30.1561 28.0566 30.1474ZM55.6982 30.1518C55.6938 31.3792 55.6938 32.6109 55.6982 33.8384C57.4231 33.834 59.1479 33.8427 60.8728 33.834C60.5235 33.2094 60.1785 32.5804 59.8204 31.9645C60.1479 31.3486 60.5235 30.7589 60.8728 30.1561C59.1479 30.1474 57.4231 30.1561 55.6982 30.1518ZM24.7684 35.2842C25.4278 38.3636 25.4278 41.5828 24.7684 44.6622C27.8208 44.6666 30.8775 44.6753 33.9299 44.6579C34.5936 41.5828 34.5893 38.368 33.9342 35.2885C30.8775 35.2754 27.8208 35.2842 24.7684 35.2842ZM52.6764 35.3016C53.3401 38.3723 53.3314 41.5741 52.6764 44.6448C55.7287 44.636 58.7855 44.6666 61.8378 44.6273C62.4841 41.5653 62.4885 38.368 61.8378 35.306C58.7855 35.2929 55.7287 35.306 52.6764 35.3016ZM36.2224 44.6797C35.122 46.3832 34.0434 48.0955 32.9517 49.8034C33.467 49.8077 33.9866 49.8077 34.5019 49.799C35.5674 48.0867 36.6722 46.3963 37.7421 44.6841C37.2311 44.6797 36.7246 44.6797 36.2224 44.6797ZM39.6067 44.6884C38.48 46.3963 37.3403 48.0955 36.2137 49.8034C36.7246 49.8077 37.2355 49.8077 37.7464 49.8121C38.8949 48.1086 40.0171 46.392 41.1569 44.6841C40.6372 44.6797 40.1219 44.6797 39.6067 44.6884ZM42.5935 44.7016C42.5979 46.4138 42.5892 48.1217 42.5979 49.8339C43.0651 49.847 43.5324 49.8427 43.9996 49.8339C44.0171 48.1217 44.004 46.4138 44.0084 44.7016C43.5368 44.6972 43.0651 44.6972 42.5935 44.7016ZM24.4365 49.8034C26.109 49.8034 27.7815 49.8077 29.4539 49.8034C29.1221 49.1744 28.7291 48.5803 28.4365 47.9382C28.7116 47.3049 29.1308 46.7414 29.4583 46.1343C27.7858 46.1255 26.1177 46.1386 24.4496 46.1255C24.4191 47.3529 24.4409 48.5803 24.4365 49.8034ZM45.4712 49.8121C45.9821 49.8208 46.5105 49.9126 47.0127 49.7859C47.8686 48.5934 48.6546 47.3442 49.4843 46.1343C48.9777 46.1299 48.4712 46.1299 47.969 46.1255C47.1175 47.3398 46.314 48.5891 45.4712 49.8121ZM48.9166 49.8339C49.3664 49.8383 49.8162 49.8689 50.2616 49.8252C50.4144 49.8339 50.4843 49.668 50.5672 49.5719C51.3227 48.4231 52.1043 47.2874 52.8598 46.1386C52.3707 46.1299 51.886 46.1299 51.4013 46.1299C50.5629 47.3529 49.7288 48.5891 48.9166 49.8339ZM55.7069 46.1211C55.7156 47.3573 55.7025 48.5978 55.7156 49.8339C56.1829 49.847 56.6545 49.8427 57.1217 49.8165C57.1261 48.5847 57.1261 47.3529 57.1217 46.1168C56.6501 46.1124 56.1785 46.1124 55.7069 46.1211ZM60.0431 46.1299C60.0431 47.3529 60.0387 48.5803 60.0431 49.8034C61.7636 49.8034 63.4841 49.8034 65.209 49.8034C64.864 49.1744 64.5147 48.5541 64.1653 47.9251C64.5059 47.3223 64.8684 46.7327 65.2134 46.1299C63.4885 46.1299 61.7636 46.1299 60.0431 46.1299ZM25.1352 51.2841C25.454 51.8825 25.7859 52.4722 26.1003 53.0706C26.3666 53.6647 27.0304 53.8787 27.4845 54.2937C28.323 54.9969 29.2749 55.7788 29.4932 56.9101C29.6199 57.5478 29.1657 58.0851 28.6592 58.3996C28.9518 59.164 29.2574 59.924 29.5675 60.6797C33.908 60.6797 38.2486 60.6753 42.5935 60.6797C42.5761 61.7804 42.6285 62.8899 42.5717 63.9906C42.1045 64.2964 41.6023 64.6327 41.432 65.2005C40.9909 66.2969 41.7726 67.6379 42.9341 67.8213C44.087 68.0747 45.3053 67.0788 45.266 65.895C45.314 65.0608 44.7507 64.3357 44.0258 63.9775C44.0346 62.8768 44.0258 61.7804 44.0302 60.6797C47.9122 60.6753 51.7987 60.6753 55.6807 60.6797C58.0955 57.5522 60.506 54.4203 62.9121 51.2841C50.3227 51.2754 37.729 51.2797 25.1352 51.2841ZM52.7375 52.7387C53.2353 52.743 53.7331 52.743 54.231 52.743C54.2353 53.2322 54.2353 53.7171 54.231 54.2063C53.7244 54.2107 53.2222 54.2107 52.7157 54.2019C52.7069 53.7171 52.7157 53.2279 52.7375 52.7387ZM32.3884 52.7518C32.8775 52.7518 33.3709 52.7518 33.8644 52.7518C33.8687 53.2366 33.8687 53.7215 33.8644 54.2107C33.3753 54.2107 32.8819 54.2107 32.3884 54.2107C32.384 53.7258 32.384 53.241 32.3884 52.7518ZM35.3141 52.7518C35.7945 52.7474 36.2748 52.7474 36.7552 52.7605C36.7552 53.241 36.7552 53.7215 36.7508 54.2019C36.2705 54.2063 35.7901 54.2107 35.3098 54.2063C35.3098 53.7258 35.3098 53.2366 35.3141 52.7518ZM38.2355 52.7518C38.7115 52.7474 39.1918 52.7474 39.6678 52.7518C39.6722 53.2366 39.6722 53.7215 39.6678 54.2107C39.1875 54.215 38.7115 54.2107 38.2311 54.2107C38.2311 53.7215 38.2311 53.2366 38.2355 52.7518ZM46.9472 52.743C47.4275 52.7387 47.9122 52.7387 48.3926 52.743C48.3926 53.2322 48.3926 53.7215 48.3926 54.2107C47.9122 54.2107 47.4319 54.2107 46.9516 54.2107C46.9428 53.7215 46.9428 53.2322 46.9472 52.743ZM49.8424 52.743C50.3227 52.7387 50.8074 52.7387 51.2921 52.7474C51.2878 53.2322 51.2878 53.7215 51.2878 54.2063C50.8074 54.2063 50.3271 54.2063 49.8467 54.2063C49.838 53.7215 49.838 53.2322 49.8424 52.743ZM33.8513 55.6521C34.3447 55.6521 34.8338 55.6521 35.3272 55.6521C35.3272 56.1413 35.3272 56.6262 35.3272 57.1154C34.8338 57.1154 34.3404 57.1154 33.8513 57.1154C33.8469 56.6305 33.8469 56.1413 33.8513 55.6521ZM48.3926 55.6565C48.8817 55.6565 49.3751 55.6565 49.8686 55.6565C49.8686 56.137 49.8686 56.6218 49.8686 57.1023C49.3751 57.1023 48.886 57.1023 48.397 57.1023C48.3926 56.6218 48.3926 56.137 48.3926 55.6565ZM36.7683 55.6608C37.253 55.6521 37.7421 55.6521 38.2311 55.6608C38.2311 56.1457 38.2311 56.6305 38.2311 57.1154C37.7421 57.1241 37.253 57.1241 36.7683 57.1154C36.7683 56.6262 36.7683 56.1457 36.7683 55.6608ZM51.2747 55.6565C51.7681 55.6521 52.2615 55.6521 52.7506 55.6565C52.7506 56.137 52.7506 56.6218 52.7506 57.1023C52.2572 57.1066 51.7681 57.1066 51.2747 57.1023C51.2703 56.6218 51.2703 56.137 51.2747 55.6565Z" fill="#CCA977"/>
<path d="M42.9603 21.4076C43.5804 21.0975 44.349 21.7876 44.1263 22.4385C43.9778 23.0587 43.0957 23.2902 42.6721 22.801C42.2398 22.3948 42.4189 21.6173 42.9603 21.4076ZM42.7245 24.3429C44.4538 24.3429 46.183 24.3385 47.9122 24.3429C47.5891 24.9369 47.1917 25.4873 46.8991 26.0945C47.1175 26.7802 47.5935 27.3699 47.9122 28.0207C46.1874 28.0295 44.4625 28.012 42.7376 28.0295C42.7114 26.8021 42.7333 25.5747 42.7245 24.3429ZM28.5762 27.217C29.2443 27.0248 29.9037 27.8111 29.5587 28.4313C29.3142 29.0166 28.4103 29.0865 28.0697 28.5536C27.716 28.0863 28.0085 27.3437 28.5762 27.217ZM55.9514 27.3175C56.5017 26.9375 57.327 27.4311 57.2702 28.0906C57.2658 28.724 56.4755 29.1302 55.9514 28.7851C55.4012 28.4881 55.4056 27.6145 55.9514 27.3175ZM37.2486 29.5102C41.2704 29.5102 45.2922 29.5059 49.3096 29.5146C50.6677 33.9481 50.6677 38.7747 49.314 43.2083C45.2965 43.2607 41.2748 43.217 37.2573 43.2301C38.5848 38.7791 38.611 33.9525 37.2486 29.5102ZM28.0566 30.148C29.7814 30.1567 31.5063 30.1436 33.2312 30.1567C32.908 30.7114 32.5543 31.2487 32.2574 31.8209C32.1482 31.9825 32.2967 32.1441 32.3622 32.2883C32.6548 32.7993 32.943 33.3191 33.2312 33.8345C31.5063 33.8433 29.7814 33.8345 28.0609 33.8389C28.0522 32.6071 28.0522 31.3797 28.0566 30.148ZM55.6982 30.1523C57.423 30.1567 59.1479 30.148 60.8728 30.1567C60.5234 30.7595 60.1523 31.3492 59.8204 31.965C60.1785 32.5853 60.5234 33.2099 60.8728 33.8345C59.1479 33.8389 57.423 33.8345 55.6982 33.8389C55.6938 32.6071 55.6938 31.3797 55.6982 30.1523ZM24.7684 35.2847C27.8208 35.2847 30.8775 35.2716 33.9299 35.2935C34.5849 38.3729 34.5892 41.5834 33.9255 44.6628C30.8731 44.6803 27.8164 44.6715 24.764 44.6672C25.4278 41.5877 25.4278 38.3685 24.7684 35.2847ZM52.6764 35.3022C55.7287 35.3066 58.7855 35.2935 61.8378 35.3066C62.4885 38.3685 62.4841 41.5659 61.8378 44.6279C58.7855 44.6672 55.7287 44.6366 52.6764 44.6453C53.327 41.5746 53.3401 38.3685 52.6764 35.3022ZM36.2224 44.6803C36.729 44.6803 37.2355 44.6803 37.7421 44.6846C36.6722 46.3969 35.5674 48.0829 34.5019 49.7996C33.9866 49.8083 33.467 49.8083 32.9517 49.8039C34.0434 48.096 35.1176 46.3838 36.2224 44.6803ZM39.6067 44.689C40.1219 44.6803 40.6416 44.6803 41.1569 44.6846C40.0171 46.3925 38.8905 48.1091 37.7464 49.8127C37.2355 49.8083 36.7246 49.8083 36.2137 49.8039C37.3359 48.096 38.48 46.3969 39.6067 44.689ZM42.5935 44.7021C43.0651 44.6977 43.5367 44.6977 44.0084 44.7021C44.004 46.41 44.0171 48.1222 43.9996 49.8345C43.5324 49.8432 43.0651 49.8476 42.5979 49.8345C42.5892 48.1222 42.5979 46.41 42.5935 44.7021ZM24.4365 49.8039C24.4453 48.5765 24.4191 47.3491 24.4496 46.1217C26.1177 46.1392 27.7902 46.1217 29.4583 46.1304C29.1308 46.7376 28.7116 47.3011 28.4365 47.9344C28.7334 48.5765 29.1264 49.1749 29.4539 49.7996C27.7815 49.8083 26.109 49.8083 24.4365 49.8039ZM45.4712 49.8127C46.314 48.5896 47.1175 47.3404 47.969 46.1261C48.4756 46.1304 48.9821 46.1304 49.4843 46.1348C48.6502 47.3447 47.8686 48.594 47.0127 49.7865C46.5105 49.9088 45.9821 49.8214 45.4712 49.8127ZM48.9166 49.8345C49.7288 48.5896 50.5629 47.3578 51.4013 46.1304C51.886 46.1304 52.3751 46.1304 52.8598 46.1392C52.1043 47.288 51.3227 48.4236 50.5672 49.5724C50.4843 49.6685 50.4144 49.8389 50.2616 49.8258C49.8161 49.8694 49.3664 49.8389 48.9166 49.8345ZM55.7069 46.1217C56.1785 46.113 56.6501 46.113 57.1217 46.1173C57.1217 47.3491 57.1217 48.5853 57.1217 49.817C56.6545 49.8432 56.1872 49.8476 55.7156 49.8345C55.7069 48.5984 55.72 47.3622 55.7069 46.1217ZM60.0431 46.1304C61.768 46.1304 63.4885 46.1261 65.2133 46.1348C64.8684 46.7332 64.5059 47.3273 64.1653 47.9301C64.5103 48.559 64.864 49.1793 65.209 49.8083C63.4885 49.8083 61.768 49.8083 60.0431 49.8083C60.0387 48.5809 60.0387 47.3578 60.0431 46.1304ZM25.1352 51.2847C37.729 51.2847 50.3227 51.2803 62.9164 51.289C60.5103 54.4253 58.0955 57.5527 55.6851 60.6846C51.803 60.6802 47.9166 60.6802 44.0346 60.6846C44.0302 61.7853 44.0389 62.8817 44.0302 63.9824C44.7507 64.3362 45.3184 65.0613 45.2703 65.9C45.3096 67.0837 44.0913 68.084 42.9385 67.8263C41.7769 67.6428 40.9997 66.3062 41.4363 65.2055C41.6023 64.6376 42.1088 64.3013 42.5761 63.9955C42.6285 62.8948 42.5804 61.7853 42.5979 60.6846C38.2573 60.6802 33.9124 60.6802 29.5718 60.6846C29.2618 59.9289 28.9561 59.1689 28.6636 58.4045C29.1701 58.09 29.6242 57.5527 29.4976 56.915C29.2793 55.7837 28.3273 55.0018 27.4889 54.2986C27.0348 53.8836 26.3666 53.6696 26.1046 53.0756C25.7859 52.4728 25.454 51.8787 25.1352 51.2847ZM52.7375 52.7392C52.7157 53.2284 52.7113 53.7176 52.72 54.2025C53.2222 54.2112 53.7288 54.2112 54.2353 54.2069C54.2397 53.7176 54.2397 53.2284 54.2353 52.7436C53.7331 52.7436 53.2353 52.7436 52.7375 52.7392ZM32.3884 52.7523C32.384 53.2372 32.384 53.722 32.3884 54.2112C32.8775 54.2112 33.3709 54.2112 33.8644 54.2112C33.8687 53.7264 33.8687 53.2415 33.8644 52.7523C33.3709 52.7523 32.8775 52.7523 32.3884 52.7523ZM35.3141 52.7523C35.3098 53.2372 35.3098 53.722 35.3141 54.2112C35.7945 54.2156 36.2748 54.2112 36.7552 54.2069C36.7552 53.7264 36.7552 53.2459 36.7595 52.7654C36.2748 52.7523 35.7945 52.748 35.3141 52.7523ZM38.2355 52.7523C38.2311 53.2372 38.2311 53.722 38.2355 54.2069C38.7115 54.2112 39.1918 54.2112 39.6722 54.2069C39.6765 53.722 39.6765 53.2372 39.6722 52.748C39.1918 52.7523 38.7115 52.7523 38.2355 52.7523ZM46.9472 52.7436C46.9428 53.2328 46.9428 53.722 46.9516 54.2112C47.4319 54.2112 47.9122 54.2112 48.3926 54.2112C48.3969 53.722 48.3969 53.2328 48.3926 52.7436C47.9079 52.7436 47.4275 52.7436 46.9472 52.7436ZM49.8423 52.7436C49.838 53.2328 49.838 53.722 49.8423 54.2112C50.3227 54.2112 50.803 54.2112 51.2834 54.2112C51.2877 53.722 51.2877 53.2372 51.2877 52.7523C50.8074 52.7436 50.3227 52.7436 49.8423 52.7436ZM33.8513 55.6527C33.8469 56.1419 33.8469 56.6311 33.8513 57.1159C34.3447 57.1159 34.8338 57.1159 35.3272 57.1159C35.3272 56.6267 35.3272 56.1419 35.3272 55.6527C34.8338 55.657 34.3403 55.6527 33.8513 55.6527ZM48.3926 55.657C48.3926 56.1419 48.3926 56.6224 48.3926 57.1028C48.8817 57.1028 49.3751 57.1028 49.8642 57.1028C49.8642 56.618 49.8642 56.1375 49.8642 55.657C49.3751 55.6527 48.8817 55.6527 48.3926 55.657ZM36.7683 55.6614C36.7683 56.1462 36.7683 56.6311 36.7683 57.1159C37.2573 57.1247 37.7464 57.1247 38.2311 57.1159C38.2311 56.6311 38.2311 56.1462 38.2311 55.6614C37.7421 55.6527 37.2573 55.6527 36.7683 55.6614ZM51.2746 55.657C51.2746 56.1375 51.2746 56.6224 51.2746 57.1028C51.7681 57.1072 52.2572 57.1072 52.7506 57.1028C52.7506 56.6224 52.7506 56.1375 52.7506 55.657C52.2572 55.6527 51.7637 55.6527 51.2746 55.657Z" fill="#FEFEFE"/>
</svg>
