<svg width="88" height="88" viewBox="0 0 88 88" fill="none" xmlns="http://www.w3.org/2000/svg">
<path d="M43.0103 53.1551C44.1903 51.622 45.4464 50.9696 47.6923 50.5456V49.9258H40.3077V50.5456C42.7438 50.7087 43.1625 51.7525 43.1625 52.3723C43.1625 52.6985 42.9722 53.1551 42.7819 53.4813L43.0103 53.1551Z" fill="#D8BE95"/>
<path d="M31.6922 62.9629H39.0768V62.3431C36.6407 62.18 36.2219 61.1362 36.2219 60.5164C36.2219 60.1902 36.4123 59.7336 36.6026 59.4074L36.3742 59.7009C35.1942 61.2341 33.9381 61.8865 31.6922 62.3105V62.9629Z" fill="#D8BE95"/>
<path d="M38.6315 49.9258H31.6922V50.5405C32.5192 50.7022 33.2023 50.8963 33.7776 51.1875L42.4068 61.96C42.0113 62.1541 41.472 62.2835 40.7169 62.3482V62.9629H47.6922V62.3482C46.9371 62.1865 46.3259 62.0247 45.7506 61.7659L37.0136 50.8963C37.4091 50.7346 37.9124 50.6052 38.6315 50.5405V49.9258Z" fill="#D8BE95"/>
<path d="M53.3638 61.7659V50.8963C53.7128 50.7346 54.4423 50.6052 55.0767 50.5405V49.9258H48.9229V50.5405C49.5256 50.5728 50.2869 50.7022 50.6358 50.8963V61.7659C50.16 61.9924 49.589 62.1865 48.9229 62.3482V62.9629H55.0767V62.3482C54.4106 62.1865 53.8714 61.9924 53.3638 61.7659Z" fill="#D8BE95"/>
<path fill-rule="evenodd" clip-rule="evenodd" d="M32.0674 68.7149L34.4365 67.7617L35.7256 66.3319H52.1001L53.3892 67.7617L55.7582 68.7149V69.634H32.0674V68.7149ZM55.8976 71.166H31.9629L30.0816 73.2766L26.6325 74.6723V76H61.2629V74.6723L57.8138 73.2766L55.8976 71.166ZM75.9999 53.634V54.6553C72.0631 54.6553 72.8296 58.6723 65.6526 58.6723C58.4757 58.6723 59.2422 54.6553 55.3053 54.6553V53.634H56.7337L64.9558 26.6043C61.1932 26.8766 56.0718 24.8681 51.4033 24.0851C50.1839 23.8809 49.522 23.8809 48.5813 23.8809C47.0832 24.3234 46.0381 25.1404 45.7593 26.4681C45.5503 27.5574 46.1077 39.0638 47.2574 46.1447C47.3271 46.5192 47.3619 46.8936 47.3619 47.2H40.6379C40.6379 46.8596 40.6728 46.5192 40.7425 46.1447C41.8922 39.0979 42.4496 27.5574 42.2406 26.4681C41.9618 25.1404 40.9167 24.3574 39.4186 23.8809C38.4779 23.8809 37.8508 23.8809 36.5966 24.0851C31.9281 24.8681 26.8067 26.8766 23.044 26.6043L31.2661 53.634H32.6946V54.6553C28.7577 54.6553 29.5242 58.6723 22.3473 58.6723C15.1703 58.6723 15.9368 54.6553 11.9999 54.6553V53.634H13.4284L21.7201 26.366C21.4414 26.2979 21.1627 26.1957 20.884 26.0596C18.8633 25.1404 18.4801 23.4723 19.3162 22.4851C20.1175 21.566 21.5111 21.4298 22.3821 22.383C23.1834 23.234 22.9047 24.8 21.6853 24.9362C20.675 25.0383 19.5949 24.1191 20.1524 23.0979C19.4556 23.9489 19.6995 24.6638 20.3962 25.1064C21.0582 25.5489 21.7201 25.6511 22.5214 25.6851C28.479 25.9574 32.9384 21.8043 40.6728 21.634C41.718 21.4979 43.3206 20.9872 43.007 19.1149C42.798 17.8213 41.265 18.2298 42.5193 16.4936C42.5193 16.4936 42.1709 15.7787 42.9025 15.5404C42.9025 15.5404 42.4148 15.3021 43.9825 12C45.5503 15.3021 45.0625 15.5404 45.0625 15.5404C45.7942 15.8128 45.4458 16.4936 45.4458 16.4936C46.7 18.2298 45.1671 17.7872 44.958 19.1149C44.6445 21.0213 46.2819 21.5319 47.2923 21.634C55.0266 21.7702 59.4861 25.9574 65.5133 25.6851C66.2797 25.6511 66.9417 25.5489 67.6385 25.1064C68.3353 24.6638 68.5791 23.9489 67.8824 23.0979C68.4398 24.1191 67.3249 25.0723 66.3494 24.9362C65.13 24.8 64.8513 23.234 65.6526 22.383C66.5236 21.4298 67.9172 21.566 68.7185 22.4851C69.5546 23.4723 69.1714 25.1404 67.1507 26.0596C66.872 26.1957 66.5933 26.2638 66.3146 26.366L74.6064 53.634H75.9999ZM22.3124 27.183L14.2645 53.634H30.3603L22.3124 27.183ZM73.6657 53.634L65.6178 27.1489L57.6047 53.634H73.6657Z" fill="#D8BE95"/>
</svg>
