<svg width="88" height="88" viewBox="0 0 88 88" fill="none" xmlns="http://www.w3.org/2000/svg">
<path d="M50.6893 38.0072C50.0371 32.7741 45.0095 29.3712 45.0095 29.3712C45.0095 29.3712 47.2383 32.6369 47.834 36.4916C48.3578 39.8888 47.5053 42.2566 47.5053 42.2566C47.5053 42.2566 46.4834 36.9778 42.7345 32.5454C39.7662 29.0395 34.9287 26.7404 34.9287 26.7404C34.9287 26.7404 32.7923 35.3363 38.77 43.9952C37.6504 43.1145 36.2998 42.2738 34.7232 41.6904C31.7601 40.5923 28.0164 41.0899 28.0164 41.0899C28.0164 41.0899 30.5019 49.3885 39.9408 51.9335C33.7013 47.0379 31.8577 42.8056 31.8577 42.8056C31.8577 42.8056 33.6705 42.9772 36.5463 44.4185C38.4413 45.3736 43.1762 48.2618 47.7159 51.3387C45.9801 49.6801 43.3302 47.0836 41.7177 44.9332C36.7517 38.3275 38.3643 31.8076 38.3643 31.8076C38.3643 31.8076 41.3017 33.5234 43.7565 37.5268C45.3741 40.1691 47.5926 46.975 47.5926 46.975C47.5926 46.975 51.4802 44.3842 50.6893 38.0072Z" fill="#8E1A50"/>
<path d="M69.7359 51.1443C65.5506 49.7888 61.4424 49.4457 61.4424 49.4457C61.4424 49.4457 63.8251 48.9252 66.6393 48.6335C71.0813 48.1703 75.0303 49.4914 75.0303 49.4914C75.0303 49.4914 74.7017 51.0585 73.9519 52.6999C73.9519 52.6999 74.8198 52.2653 75.5952 51.6361C77.6134 49.9833 77.7366 48.1474 77.7366 48.1474C77.7366 48.1474 74.2755 46.0313 68.9193 46.6833C68.7653 46.7005 68.4674 46.7805 68.4674 46.7805C68.4674 46.7805 68.9604 46.5289 69.3867 46.1514C72.3189 43.5835 72.9711 39.9518 72.9711 39.9518C72.9711 39.9518 69.0991 39.4027 66.1206 40.1233C60.3229 41.5246 58.3561 46.7576 58.3561 46.7576C58.3561 46.7576 61.3397 44.3727 63.363 43.5892C65.792 42.6512 68.3493 42.7084 68.3493 42.7084C68.3493 42.7084 66.1155 46.3687 61.7556 47.8672C58.8028 48.8852 55.5214 49.1769 55.5214 49.1769C55.5214 49.1769 57.2931 41.1299 66.0436 38.6935C71.3329 37.218 78.9999 38.8651 78.9999 38.8651C78.9999 38.8651 69.8899 33.6378 61.8224 37.8585C67.3069 31.2929 63.1627 22.3823 63.1627 22.3823C63.1627 22.3823 57.7039 23.5719 54.2838 26.9634C51.3823 29.8459 50.5196 33.7693 51.0383 36.0341C51.0383 36.0341 52.3016 33.2946 55.0078 30.3606C57.3239 27.8499 60.1277 26.1742 60.1277 26.1742C60.1277 26.1742 61.1188 32.5683 58.6231 39.0024C54.6689 49.2226 49.5234 52.1909 49.5234 52.1909C49.5234 52.1909 59.1109 50.9956 65.0627 52.6256C70.0748 53.9982 72.5243 55.9885 72.5243 55.9885C72.5243 55.9885 65.2322 61.6105 53.3286 58.7909C45.3843 56.9093 41.4456 53.4434 41.4456 53.4434C41.4456 53.4434 47.3717 60.1978 56.8874 62.0737C72.4627 65.1507 77.562 56.8406 77.562 56.8406C77.562 56.8406 74.5733 52.7114 69.7359 51.1443Z" fill="#D5121E"/>
<path d="M28.747 63.189C32.7013 63.1261 37.0254 61.8049 37.0254 61.8049C37.0254 61.8049 34.6374 63.6236 33.5179 64.1784C32.3264 64.7732 31.1402 65.6482 28.5057 65.3051C24.7876 64.8247 22.4253 63.0174 20.6382 61.6848C20.6331 61.6905 22.9029 63.2862 28.747 63.189Z" fill="#009A4E"/>
<path d="M27.2829 59.0312C21.9883 57.0294 18.9276 53.9983 16.8837 51.2244C16.8837 51.2244 22.0089 53.2262 27.4011 54.3185C31.8381 55.2165 37.7901 57.2639 40.8405 60.2208C38.5039 55.5081 33.5174 52.1395 27.0416 51.213C13.0578 49.2341 9.65299 45.3851 9.00593 44.7217C8.99566 44.7274 9.00079 44.7217 9.00593 44.7217C9.69408 47.0551 13.1246 57.058 21.8959 60.2436C29.029 62.8345 37.7746 60.6726 37.7746 60.6726C37.7746 60.6726 33.4403 61.3646 27.2829 59.0312Z" fill="#00A7E5"/>
</svg>
