<svg width="32" height="32" viewBox="0 0 32 32" fill="none" xmlns="http://www.w3.org/2000/svg">
<path fill-rule="evenodd" clip-rule="evenodd" d="M25 16C25 15.4477 24.5523 15 24 15H10.415L14.7071 10.7071C15.0676 10.3466 15.0953 9.77939 14.7903 9.3871L14.7071 9.29289C14.3466 8.93241 13.7794 8.90468 13.3871 9.2097L13.2929 9.29289L7.29289 15.2929L7.2515 15.3369L7.19633 15.4047L7.12467 15.5159L7.07123 15.6287L7.03585 15.734L7.00683 15.8825L7 16L7.00279 16.0752L7.02024 16.2007L7.04974 16.3121L7.09367 16.4232L7.146 16.5207L7.21279 16.6168C7.23767 16.6485 7.26443 16.6786 7.29289 16.7071L13.2929 22.7071C13.6834 23.0976 14.3166 23.0976 14.7071 22.7071C15.0676 22.3466 15.0953 21.7794 14.7903 21.3871L14.7071 21.2929L10.415 17H24C24.5523 17 25 16.5523 25 16Z" fill="black"/>
</svg>
