<svg width="24" height="24" viewBox="0 0 24 24" fill="none" xmlns="http://www.w3.org/2000/svg">
<path d="M4 19L3.10557 18.5528C2.93092 18.9021 2.97559 19.3211 3.21996 19.6257C3.46432 19.9304 3.86367 20.0649 4.24254 19.9701L4 19ZM19 11.5C19 15.0899 16.0899 18 12.5 18V20C17.1944 20 21 16.1944 21 11.5H19ZM6 11.5C6 7.91015 8.91015 5 12.5 5V3C7.80558 3 4 6.80558 4 11.5H6ZM12.5 5C16.0899 5 19 7.91015 19 11.5H21C21 6.80558 17.1944 3 12.5 3V5ZM12.5 18C12.0177 18 11.4278 17.8165 10.698 17.5576C10.3628 17.4386 9.98757 17.301 9.64008 17.1977C9.29816 17.0961 8.89708 17 8.5 17V19C8.60292 19 8.78138 19.0289 9.07014 19.1148C9.35332 19.199 9.65991 19.3114 10.0292 19.4424C10.7086 19.6835 11.6186 20 12.5 20V18ZM8.5 17C8.33739 17 8.13628 17.0326 7.99174 17.0578C7.81787 17.088 7.60765 17.1298 7.37993 17.1777C6.92315 17.2739 6.36737 17.401 5.83346 17.5266C5.29829 17.6525 4.77953 17.7783 4.39494 17.8725C4.20253 17.9196 4.04344 17.9589 3.93234 17.9864C3.87678 18.0002 3.83321 18.011 3.80346 18.0184C3.78858 18.0221 3.77715 18.0249 3.76941 18.0269C3.76554 18.0278 3.76259 18.0286 3.76059 18.0291C3.75959 18.0293 3.75883 18.0295 3.75831 18.0296C3.75804 18.0297 3.75784 18.0298 3.7577 18.0298C3.75763 18.0298 3.75757 18.0298 3.75754 18.0298C3.75749 18.0299 3.75746 18.0299 4 19C4.24254 19.9701 4.24254 19.9701 4.24255 19.9701C4.24258 19.9701 4.24261 19.9701 4.24266 19.9701C4.24277 19.9701 4.24293 19.97 4.24315 19.97C4.2436 19.9699 4.24429 19.9697 4.24521 19.9695C4.24706 19.969 4.24985 19.9683 4.25357 19.9674C4.26099 19.9655 4.27209 19.9628 4.28663 19.9591C4.31572 19.9519 4.35857 19.9413 4.41337 19.9277C4.52297 19.9005 4.68028 19.8617 4.87068 19.815C5.25172 19.7217 5.76421 19.5975 6.29154 19.4734C6.82013 19.349 7.3581 19.2261 7.79195 19.1348C8.00954 19.089 8.19385 19.0526 8.33443 19.0282C8.50435 18.9986 8.53761 19 8.5 19V17ZM4 19C4.89443 19.4472 4.89446 19.4471 4.8945 19.4471C4.89452 19.447 4.89457 19.4469 4.89461 19.4468C4.8947 19.4467 4.8948 19.4465 4.89493 19.4462C4.8952 19.4457 4.89555 19.445 4.89599 19.4441C4.89687 19.4423 4.8981 19.4398 4.89969 19.4367C4.90285 19.4303 4.9074 19.4211 4.91323 19.4093C4.92491 19.3857 4.94175 19.3515 4.96302 19.308C5.00555 19.2209 5.06589 19.0962 5.13811 18.9437C5.28224 18.6394 5.47528 18.2213 5.66915 17.7689C5.86189 17.3192 6.06131 16.8221 6.21431 16.3631C6.35507 15.9408 6.5 15.4284 6.5 15H4.5C4.5 15.0716 4.45743 15.3092 4.31694 15.7306C4.18869 16.1154 4.01311 16.5558 3.83085 16.9811C3.64972 17.4037 3.46776 17.7981 3.33064 18.0875C3.26224 18.2319 3.20539 18.3494 3.16589 18.4303C3.14614 18.4707 3.13076 18.502 3.12046 18.5228C3.11531 18.5332 3.11143 18.541 3.10892 18.5461C3.10766 18.5486 3.10675 18.5504 3.10619 18.5516C3.10591 18.5521 3.10571 18.5525 3.10561 18.5527C3.10556 18.5528 3.10553 18.5529 3.10552 18.5529C3.10552 18.5529 3.10553 18.5529 3.10553 18.5529C3.10555 18.5528 3.10557 18.5528 4 19ZM6.5 15C6.5 14.3828 6.35053 13.6221 6.23148 13.0122C6.09726 12.3245 6 11.817 6 11.5H4C4 12.0596 4.15275 12.8021 4.26852 13.3953C4.39947 14.0662 4.5 14.6172 4.5 15H6.5Z" fill="#212122"/>
</svg>
