<svg width="24" height="25" viewBox="0 0 24 25" fill="none" xmlns="http://www.w3.org/2000/svg">
<path d="M4 11.4075C4 10.8308 4.24896 10.2822 4.68299 9.90238L10.683 4.65238C11.437 3.99259 12.563 3.99259 13.317 4.65238L19.317 9.90238C19.751 10.2822 20 10.8308 20 11.4075V18.5C20 19.6046 19.1046 20.5 18 20.5H16C14.8954 20.5 14 19.6046 14 18.5V16.5C14 15.3954 13.1046 14.5 12 14.5V14.5C10.8954 14.5 10 15.3954 10 16.5V18.5C10 19.6046 9.10457 20.5 8 20.5H6C4.89543 20.5 4 19.6046 4 18.5V11.4075Z" stroke="#212122" stroke-width="2" stroke-linejoin="round"/>
</svg>
